<svg width="250" height="75" viewBox="0 0 250 75" fill="none" xmlns="http://www.w3.org/2000/svg">
<g clip-path="url(#clip0_64019_722)">
<path d="M60.0041 44.1514C60.1864 44.1351 60.3328 44.1742 60.4468 44.2686C60.5574 44.3565 60.5835 44.4639 60.5249 44.5941C59.7599 46.5928 58.8778 48.5329 57.8817 50.4144C56.8823 52.2959 55.7072 54.1156 54.353 55.8701C53.3537 57.1787 52.2502 58.4287 51.0457 59.6201C50.1603 60.46 49.1968 61.2119 48.1551 61.8727C47.1134 62.5303 45.9709 63.0609 44.7306 63.4613C40.1733 64.9001 36.0229 64.2588 32.2827 61.5342C31.3257 60.8474 30.4989 60.0563 29.7957 59.1644C29.0926 58.279 28.4871 57.3317 27.9728 56.3259C27.1655 54.7373 26.5373 53.1097 26.0848 51.4431C25.6258 49.7862 25.3133 48.0902 25.1473 46.3519C25.0887 45.5446 25.0496 44.7048 25.0301 43.8259C25.0138 43.3832 24.9976 42.9242 24.978 42.4457C25.092 38.3148 25.7072 34.249 26.827 30.2451C27.9403 26.2347 29.6493 22.3513 31.9572 18.5915C33.3016 16.3975 34.9259 14.3662 36.827 12.4977C38.396 10.945 40.245 9.70477 42.3739 8.77378C44.1252 8.01857 45.9806 7.70607 47.9338 7.83628C48.5392 7.87209 49.1187 8.00229 49.6655 8.2269C52.1818 9.25229 53.9006 10.932 54.8218 13.266C54.8641 13.3539 54.8934 13.458 54.9129 13.5785C54.965 13.917 54.7957 14.1611 54.4051 14.3076C54.021 14.4899 53.715 14.4378 53.4806 14.1514C53.2723 13.8747 53.0965 13.5915 52.9598 13.305C52.9403 13.2627 52.911 13.2139 52.8687 13.1618C52.2339 12.068 51.3745 11.1273 50.2905 10.3363C49.3791 9.67873 48.409 9.27834 47.3869 9.13836C46.3615 8.99188 45.3035 9.03094 44.2098 9.25555C43.4611 9.43784 42.7677 9.695 42.1265 10.0238C41.4819 10.3558 40.8667 10.7334 40.2775 11.1566C38.6011 12.4326 37.1297 13.8975 35.8634 15.5446C33.0314 19.2002 30.922 23.1585 29.5353 27.4196C28.5913 30.1996 27.8817 33.0153 27.4129 35.8701C26.9442 38.7184 26.7944 41.596 26.9572 44.5029C27.0614 46.6221 27.3836 48.6957 27.9207 50.7269C28.4513 52.7484 29.2619 54.7048 30.3556 56.5993C31.5601 58.6826 33.2983 60.3265 35.564 61.5342C37.5952 62.5824 39.6525 63.0381 41.7358 62.9014C43.8257 62.7614 45.7495 62.0876 47.5041 60.8832C48.6304 60.0921 49.6427 59.197 50.5379 58.2009C51.7879 56.8272 52.9207 55.3949 53.9364 53.904C54.952 52.4099 55.9058 50.8766 56.8009 49.3076C57.3478 48.2855 57.8752 47.2503 58.3895 46.2087C58.5718 45.8441 58.7541 45.4795 58.9364 45.1149C59.047 44.874 59.1838 44.6592 59.34 44.4769C59.4963 44.2946 59.7176 44.1872 60.0041 44.1514Z" fill="#315AFF"/>
<path d="M77.3402 43.5524C77.4866 43.3538 77.6429 43.2106 77.8089 43.1227C77.9814 43.0283 78.0823 43.0283 78.1084 43.1227C78.1409 43.2106 78.0563 43.4287 77.848 43.7738C77.3532 44.5029 76.6273 45.1995 75.6735 45.8571C74.7262 46.5081 73.6748 47.068 72.5224 47.5368C71.3766 48.0055 70.2503 48.3148 69.15 48.4613C68.0563 48.611 67.1253 48.5361 66.3636 48.2399C65.6084 47.9469 65.1331 47.3675 64.9443 46.5081C64.3096 47.5498 63.5543 48.3669 62.6787 48.9561C61.7998 49.5387 60.9665 49.7861 60.1787 49.6982C59.2737 49.568 58.678 49.2295 58.3818 48.6826C58.0791 48.1357 57.9782 47.5075 58.0823 46.7946C58.18 46.0752 58.3948 45.3949 58.7334 44.7503C58.9743 44.2653 59.3258 43.8096 59.7881 43.3831C60.2471 42.96 60.7256 42.6279 61.2204 42.3936C61.8454 42.0811 62.4704 41.9443 63.0954 41.9769C63.7269 42.0029 64.4007 42.208 65.1136 42.5889C65.1136 42.5889 65.1201 42.5726 65.1396 42.5368C65.1396 42.4587 65.1527 42.374 65.1787 42.2764C65.2112 42.1722 65.2731 42.0876 65.361 42.0159C65.4814 41.9215 65.6377 41.8467 65.8297 41.7946C66.0283 41.7425 66.2204 41.736 66.4027 41.7686C66.6956 41.8206 66.8779 41.9704 66.9495 42.2113C67.0179 42.4456 67.0309 42.7061 66.9886 42.9925C66.943 43.2725 66.8974 43.5101 66.8454 43.7087C66.8258 43.7542 66.8193 43.7933 66.8193 43.8258C66.5231 45.0238 66.6305 45.8669 67.1448 46.3519C67.6559 46.8402 68.3981 47.0648 69.3714 47.029C70.3512 46.9964 71.3896 46.7913 72.4834 46.417C73.5836 46.0459 74.583 45.5967 75.4782 45.0758C76.3799 44.555 77.0016 44.0472 77.3402 43.5524ZM60.5303 48.0706C60.9209 48.3311 61.331 48.305 61.7672 47.9925C62.2099 47.68 62.6396 47.234 63.0563 46.6514C63.4795 46.0622 63.8278 45.4762 64.098 44.8936C64.3747 44.3141 64.5309 43.8714 64.5667 43.5654C63.6878 43.0967 62.9391 43.0153 62.3141 43.318C61.6956 43.624 61.2106 44.109 60.8558 44.7764C60.5075 45.4372 60.3089 46.0915 60.2568 46.7425C60.2047 47.3936 60.2959 47.8363 60.5303 48.0706Z" fill="#315AFF"/>
<path d="M91.9366 46.1045C91.9366 46.1045 91.9431 46.098 91.9626 46.0785C92.0407 46.0003 92.2165 45.8376 92.4965 45.5837C92.7829 45.3233 93.0759 45.0824 93.3819 44.8545C93.6846 44.6201 93.906 44.4997 94.0459 44.4899C94.1924 44.4834 94.1534 44.6917 93.9288 45.1149C93.919 45.167 93.8799 45.2321 93.8116 45.3102C93.7497 45.3819 93.6879 45.4632 93.6293 45.5576C93.6195 45.5772 93.6065 45.5934 93.5902 45.6097C92.2881 46.9639 91.2758 47.9112 90.5564 48.4483C89.8337 48.9886 89.1241 49.2263 88.4209 49.1644C87.6918 49.096 87.2002 48.7608 86.9496 48.1618C86.6957 47.5563 86.585 46.8076 86.611 45.9222C86.6436 45.0368 86.7217 44.1481 86.8454 43.2529C86.9659 42.2992 87.0277 41.4919 87.0277 40.8311C87.0277 40.1735 86.8454 39.7992 86.4808 39.7113C86.1846 39.695 85.8689 40.0238 85.5303 40.7009C85.1918 41.3779 84.8597 42.182 84.5407 43.1097C84.2185 44.0407 83.9483 44.8773 83.7334 45.6227C83.5316 46.2477 83.3982 46.6612 83.3298 46.8597C83.1996 47.1657 82.9913 47.3545 82.7048 47.4326C82.4183 47.5108 82.1319 47.4912 81.8454 47.3675C81.6436 47.2731 81.5362 47.1266 81.5199 46.9248C81.458 46.4821 81.4353 46.0264 81.4548 45.5576C81.4548 45.2386 81.445 44.9326 81.4288 44.6462C81.4288 44.5681 81.4288 44.4769 81.4288 44.3727C81.445 44.2263 81.4483 44.0798 81.4418 43.93C81.432 43.7835 81.4157 43.6566 81.3897 43.5524C81.3636 43.4417 81.3148 43.3766 81.2465 43.3571C81.0902 43.3571 80.9079 43.5329 80.6996 43.8779C80.4978 44.2263 80.2894 44.6527 80.0746 45.154C79.8663 45.6585 79.6775 46.111 79.5147 46.5082C79.3845 46.8662 79.2933 47.1039 79.2413 47.2243C79.2054 47.2862 79.1794 47.335 79.1631 47.3675C78.9971 47.7158 78.8246 48.0511 78.6423 48.3701C78.486 48.6501 78.2549 48.8128 77.9522 48.8649C77.2491 48.9626 76.8747 48.6891 76.8324 48.0446C76.7868 46.404 76.7478 44.7503 76.7152 43.0837C76.7347 42.7712 76.8649 42.5726 77.1189 42.4847C77.3793 42.3903 77.6462 42.3903 77.9261 42.4847C78.2028 42.5726 78.3558 42.7386 78.3819 42.9795C78.3982 43.0837 78.4079 43.2009 78.4079 43.3311C78.486 44.044 78.5707 44.3988 78.6683 44.3988C78.7725 44.3988 79.0069 44.0928 79.3715 43.4743C79.5538 43.1553 79.7426 42.8428 79.9444 42.5368C80.1853 42.1136 80.4978 41.749 80.8819 41.4431C81.3051 41.1664 81.7087 41.085 82.0928 41.1957C82.4737 41.2998 82.7764 41.583 83.0043 42.042C83.141 42.3285 83.2647 42.4457 83.3689 42.3936C83.3689 42.3936 83.3819 42.3903 83.4079 42.3806C83.4405 42.2601 83.5837 41.9378 83.8376 41.417C84.098 40.8897 84.4398 40.307 84.8663 39.6722C85.2992 39.0407 85.781 38.5231 86.3116 38.1227C86.6827 37.8623 87.0798 37.7191 87.4965 37.6931C87.9131 37.667 88.281 37.7842 88.6032 38.0446C88.9222 38.2985 89.1143 38.7445 89.1761 39.3858C89.2022 39.8903 89.1631 40.6097 89.059 41.5472C88.9613 42.4847 88.8506 43.4027 88.7204 44.2946C88.6163 45.1377 88.5446 45.7855 88.5121 46.2347C88.4665 47.1917 88.6293 47.7126 88.9939 47.7972C89.3584 47.8753 89.8142 47.7289 90.361 47.3545C90.9144 46.9834 91.4418 46.5667 91.9366 46.1045Z" fill="#315AFF"/>
<path d="M94.1073 49.6462C93.9413 49.6657 93.759 49.5485 93.5604 49.2946C93.3586 49.044 93.1828 48.6143 93.0266 48.0055C92.8801 47.3903 92.828 46.544 92.8703 45.4665C92.8703 45.3623 92.8703 45.2256 92.8703 45.0498C92.8703 44.6429 92.8898 44.1579 92.9224 43.5915C92.9647 43.0283 93.0461 42.5238 93.1698 42.0811C93.2902 41.6384 93.4823 41.3714 93.7427 41.2738C94.5142 41.0654 94.9341 41.3389 95.0057 42.0941C95.0057 42.3285 94.996 42.5693 94.9797 42.8102C94.9602 42.9242 94.9536 43.0414 94.9536 43.1618C94.9341 43.5101 94.9178 43.8486 94.9016 44.1774C94.9016 44.4736 94.8885 44.7568 94.8625 45.0238C94.8625 45.2158 94.8625 45.486 94.8625 45.8311C94.8885 46.3193 94.8918 46.8532 94.8755 47.4326C94.8658 48.0055 94.8006 48.5101 94.6802 48.943C94.5663 49.3695 94.3742 49.6039 94.1073 49.6462ZM94.8365 38.6957C94.7486 38.7933 94.6216 38.8519 94.4588 38.8779C94.2928 38.8975 94.1659 38.8845 94.0812 38.8389C93.9836 38.7445 93.925 38.6403 93.899 38.5264C93.8729 38.4157 93.8599 38.279 93.8599 38.1227C93.8762 38.0804 93.8859 38.0414 93.8859 38.0055C93.9022 37.8591 93.938 37.7158 93.9901 37.5759C94.1529 37.1527 94.4914 36.9704 95.0057 37.029C95.188 37.0485 95.3215 37.1201 95.4094 37.2503C95.5038 37.374 95.5331 37.5173 95.5005 37.68C95.3768 38.0707 95.1555 38.4092 94.8365 38.6957Z" fill="#315AFF"/>
<path d="M103.149 16.9378C104.145 17.0778 105.014 17.7907 105.753 19.0732C106.498 20.3591 107.003 22.0225 107.263 24.0602C107.53 26.1012 107.446 28.305 107.003 30.6748C106.567 33.0381 105.675 35.3688 104.321 37.667C102.973 39.9587 101.066 42.0225 98.5916 43.8519C98.6697 44.8089 98.8162 45.7497 99.0343 46.6774C99.2491 47.6084 99.5681 48.3441 99.9848 48.891C100.366 49.3337 100.818 49.4736 101.339 49.3076C101.866 49.1449 102.397 48.7966 102.927 48.266C103.455 47.7386 103.933 47.1592 104.36 46.5342C104.793 45.9027 105.108 45.346 105.31 44.8675C105.473 44.5225 105.639 44.3467 105.805 44.3467C105.968 44.3467 106.013 44.5225 105.935 44.8675C105.649 45.7106 105.291 46.5212 104.868 47.3024C104.451 48.0772 103.904 48.7738 103.227 49.3988C102.713 49.887 102.101 50.2028 101.391 50.3493C100.252 50.5251 99.3337 50.2256 98.6306 49.4509C97.9275 48.6794 97.4001 47.5824 97.0551 46.1566C96.837 45.2549 96.684 43.9137 96.5994 42.1331C96.5115 40.346 96.5115 38.3408 96.5994 36.1175C96.684 33.8877 96.8728 31.6318 97.1593 29.3467C97.4522 27.0648 97.8559 24.9684 98.3702 23.0576C98.8813 21.1403 99.5291 19.6201 100.31 18.5003C101.098 17.374 102.045 16.8532 103.149 16.9378ZM98.6176 42.3415C100.812 40.3102 102.459 38.1683 103.552 35.9092C104.653 33.6533 105.349 31.4398 105.636 29.2686C105.929 27.1006 105.952 25.141 105.701 23.3962C105.457 21.6514 105.076 20.2809 104.555 19.2816C104.034 18.2855 103.526 17.833 103.032 17.9274C102.407 18.1097 101.853 18.7542 101.378 19.8545C100.909 20.9482 100.509 22.335 100.18 24.0081C99.8481 25.6846 99.5746 27.4717 99.3598 29.3727C99.1417 31.2738 98.9724 33.1195 98.852 34.9066C98.7283 36.6872 98.6501 38.2399 98.6176 39.568C98.5818 40.8897 98.5818 41.8141 98.6176 42.3415Z" fill="#315AFF"/>
<path d="M123.574 43.5524C123.721 43.3538 123.877 43.2106 124.043 43.1227C124.216 43.0283 124.316 43.0283 124.343 43.1227C124.375 43.2106 124.29 43.4287 124.082 43.7738C123.587 44.5029 122.861 45.1995 121.908 45.8571C120.96 46.5081 119.909 47.068 118.757 47.5368C117.611 48.0055 116.484 48.3148 115.384 48.4613C114.29 48.611 113.359 48.5361 112.598 48.2399C111.843 47.9469 111.367 47.3675 111.178 46.5081C110.544 47.5498 109.788 48.3669 108.913 48.9561C108.034 49.5387 107.201 49.7861 106.413 49.6982C105.508 49.568 104.912 49.2295 104.616 48.6826C104.313 48.1357 104.212 47.5075 104.316 46.7946C104.414 46.0752 104.629 45.3949 104.968 44.7503C105.208 44.2653 105.56 43.8096 106.022 43.3831C106.481 42.96 106.96 42.6279 107.454 42.3936C108.079 42.0811 108.704 41.9443 109.329 41.9769C109.961 42.0029 110.635 42.208 111.348 42.5889C111.348 42.5889 111.354 42.5726 111.374 42.5368C111.374 42.4587 111.387 42.374 111.413 42.2764C111.445 42.1722 111.507 42.0876 111.595 42.0159C111.716 41.9215 111.872 41.8467 112.064 41.7946C112.262 41.7425 112.454 41.736 112.637 41.7686C112.93 41.8206 113.112 41.9704 113.184 42.2113C113.252 42.4456 113.265 42.7061 113.223 42.9925C113.177 43.2725 113.132 43.5101 113.079 43.7087C113.06 43.7542 113.053 43.7933 113.053 43.8258C112.757 45.0238 112.865 45.8669 113.379 46.3519C113.89 46.8402 114.632 47.0648 115.606 47.029C116.585 46.9964 117.624 46.7913 118.718 46.417C119.818 46.0459 120.817 45.5967 121.712 45.0758C122.614 44.555 123.236 44.0472 123.574 43.5524ZM106.764 48.0706C107.155 48.3311 107.565 48.305 108.001 47.9925C108.444 47.68 108.874 47.234 109.29 46.6514C109.714 46.0622 110.062 45.4762 110.332 44.8936C110.609 44.3141 110.765 43.8714 110.801 43.5654C109.922 43.0967 109.173 43.0153 108.548 43.318C107.93 43.624 107.445 44.109 107.09 44.7764C106.742 45.4372 106.543 46.0915 106.491 46.7425C106.439 47.3936 106.53 47.8363 106.764 48.0706Z" fill="#315AFF"/>
<path d="M155.141 37.2113C155.454 37.0908 155.714 37.0908 155.922 37.2113C156.131 37.3252 156.248 37.5466 156.274 37.8753C156.248 38.8844 156.189 39.8903 156.105 40.8962C155.851 44.4053 155.512 47.9014 155.089 51.391C154.845 53.4743 154.558 55.5479 154.23 57.6149C153.907 59.6787 153.5 61.7327 153.006 63.7738C152.491 65.9092 151.782 67.9535 150.87 69.9066C150.271 71.1826 149.496 72.335 148.552 73.3701C147.918 74.0374 147.153 74.542 146.261 74.8805C145.616 75.0954 145.024 75.0628 144.477 74.7764C143.93 74.4964 143.526 74.0993 143.266 73.5785C142.953 72.9339 142.745 72.2699 142.641 71.5863C142.465 70.1865 142.55 68.8259 142.888 67.4977C143.286 65.8115 143.907 64.2295 144.75 62.7451C146.599 59.2881 149.054 56.3649 152.12 53.9691C152.875 53.4222 153.286 52.693 153.357 51.7816C153.468 50.5771 153.598 49.3695 153.748 48.1618C153.8 47.641 153.852 47.1299 153.904 46.6253C153.852 46.5993 153.8 46.57 153.748 46.5342C153.712 46.5179 153.686 46.5081 153.67 46.5081C153.592 46.6383 153.507 46.7783 153.422 46.9248C153.256 47.221 153.09 47.5205 152.927 47.8232C151.918 49.7438 150.704 51.5146 149.282 53.1488C147.7 54.9619 145.825 56.3779 143.657 57.3936C142.804 57.8167 141.915 58.0999 140.987 58.2399C137.895 58.611 135.314 57.5628 133.24 55.0889C132.136 53.777 131.313 52.3154 130.766 50.7008C129.828 48.0186 129.373 45.2907 129.399 42.5107C129.337 38.2497 129.894 34.1058 131.065 30.0758C132.159 26.2412 133.842 22.7126 136.118 19.4899C136.879 18.432 137.735 17.4554 138.683 16.5602C139.636 15.6683 140.688 14.887 141.834 14.2165C143.1 13.4873 144.47 13.0153 145.948 12.7972C148.11 12.5303 150.066 13.1227 151.821 14.5811C152.426 15.0758 152.869 15.6878 153.149 16.417C153.331 16.8434 153.347 17.2568 153.201 17.654C153.071 17.9665 152.83 18.1325 152.485 18.1488C152.319 18.1488 152.192 18.1032 152.107 18.0055C152.029 17.9014 151.964 17.7842 151.912 17.654C151.433 16.4658 150.74 15.6032 149.829 15.0628C148.917 14.5257 147.875 14.2002 146.704 14.0863C145.981 14.0179 145.278 14.0732 144.594 14.2555C143.907 14.4378 143.256 14.7048 142.641 15.0498C141.554 15.6585 140.577 16.4007 139.711 17.2764C138.868 18.1195 138.103 19.0212 137.42 19.9847C136.733 20.9417 136.118 21.9378 135.571 22.9795C134.285 25.3493 133.286 27.82 132.576 30.3883C131.873 32.96 131.417 35.6064 131.209 38.3311C131.007 40.8245 131.069 43.3148 131.391 45.805C131.651 47.846 132.228 49.8122 133.123 51.7035C133.702 52.9339 134.496 54.0342 135.506 54.9977C137.771 57.0192 140.248 57.5173 142.94 56.4951C144.06 56.0426 145.063 55.4209 145.948 54.6331C147.075 53.7021 148.074 52.6702 148.943 51.5342C149.809 50.3981 150.587 49.1839 151.274 47.8883C152.661 45.2321 153.644 42.4066 154.217 39.4118C154.249 39.2295 154.285 39.0472 154.321 38.8649C154.363 38.5719 154.418 38.2855 154.49 38.0055C154.584 37.641 154.802 37.3773 155.141 37.2113ZM152.185 59.6982C152.202 59.6266 152.218 59.555 152.237 59.4769C152.504 57.999 152.735 56.3779 152.927 54.6071C152.778 54.7113 152.648 54.8024 152.537 54.8805C152.397 54.9652 152.289 55.0498 152.211 55.1279C149.389 57.7061 147.224 60.7562 145.714 64.2816C145.183 65.4535 144.845 66.6774 144.698 67.9535C144.62 68.5426 144.597 69.1188 144.633 69.6852C144.676 70.2581 144.806 70.8246 145.024 71.391C145.134 71.6774 145.284 71.9411 145.467 72.1852C145.952 72.7321 146.482 72.8037 147.055 72.4066C147.644 71.9639 148.123 71.4235 148.487 70.792C149.217 69.6364 149.809 68.4092 150.271 67.1071C151.121 64.7178 151.759 62.2503 152.185 59.6982Z" fill="#315AFF"/>
<path d="M176.502 43.5524C176.649 43.3538 176.805 43.2106 176.971 43.1227C177.144 43.0283 177.245 43.0283 177.271 43.1227C177.303 43.2106 177.219 43.4287 177.01 43.7738C176.515 44.5029 175.789 45.1995 174.836 45.8571C173.888 46.5081 172.837 47.068 171.685 47.5368C170.539 48.0055 169.413 48.3148 168.312 48.4613C167.219 48.611 166.288 48.5361 165.526 48.2399C164.771 47.9469 164.295 47.3675 164.107 46.5081C163.472 47.5498 162.717 48.3669 161.841 48.9561C160.962 49.5387 160.129 49.7861 159.341 49.6982C158.436 49.568 157.84 49.2295 157.544 48.6826C157.241 48.1357 157.14 47.5075 157.245 46.7946C157.342 46.0752 157.557 45.3949 157.896 44.7503C158.136 44.2653 158.488 43.8096 158.95 43.3831C159.409 42.96 159.888 42.6279 160.383 42.3936C161.008 42.0811 161.633 41.9443 162.258 41.9769C162.889 42.0029 163.563 42.208 164.276 42.5889C164.276 42.5889 164.282 42.5726 164.302 42.5368C164.302 42.4587 164.315 42.374 164.341 42.2764C164.373 42.1722 164.435 42.0876 164.523 42.0159C164.644 41.9215 164.8 41.8467 164.992 41.7946C165.191 41.7425 165.383 41.736 165.565 41.7686C165.858 41.8206 166.04 41.9704 166.112 42.2113C166.18 42.4456 166.193 42.7061 166.151 42.9925C166.105 43.2725 166.06 43.5101 166.008 43.7087C165.988 43.7542 165.982 43.7933 165.982 43.8258C165.685 45.0238 165.793 45.8669 166.307 46.3519C166.818 46.8402 167.56 47.0648 168.534 47.029C169.513 46.9964 170.552 46.7913 171.646 46.417C172.746 46.0459 173.745 45.5967 174.64 45.0758C175.542 44.555 176.164 44.0472 176.502 43.5524ZM159.692 48.0706C160.083 48.3311 160.493 48.305 160.929 47.9925C161.372 47.68 161.802 47.234 162.219 46.6514C162.642 46.0622 162.99 45.4762 163.26 44.8936C163.537 44.3141 163.693 43.8714 163.729 43.5654C162.85 43.0967 162.101 43.0153 161.476 43.318C160.858 43.624 160.373 44.109 160.018 44.7764C159.67 45.4372 159.471 46.0915 159.419 46.7425C159.367 47.3936 159.458 47.8363 159.692 48.0706Z" fill="#315AFF"/>
<path d="M183.859 44.7764C184.015 44.4574 184.119 44.3076 184.172 44.3337C184.23 44.3597 184.25 44.4899 184.224 44.7243C184.198 44.9587 184.145 45.2288 184.067 45.5316C183.963 45.9841 183.774 46.5147 183.507 47.1201C183.237 47.7191 182.941 48.266 182.622 48.7607C182.144 49.4378 181.548 49.9522 180.838 50.2972C180.125 50.6455 179.478 50.7334 178.898 50.5576C178.325 50.3851 177.99 49.8382 177.895 48.917C177.876 48.1553 177.948 47.3154 178.104 46.404C178.146 46.0231 178.198 45.6488 178.26 45.2842C178.26 45.1475 178.224 45.0433 178.156 44.9717C178.094 44.9033 178.006 44.8773 177.895 44.8936C177.824 44.8936 177.742 44.8936 177.648 44.8936C177.186 44.9717 176.724 44.9652 176.255 44.8675C175.692 44.7048 175.366 44.4248 175.278 44.0342C175.184 43.6371 175.187 43.1162 175.291 42.4717C175.353 42.0225 175.526 41.6839 175.812 41.4561C176.089 41.2217 176.418 41.1273 176.802 41.1696C177.329 41.2152 177.586 41.417 177.57 41.7816C177.55 42.1397 177.453 42.5205 177.27 42.9274C177.104 43.266 177.017 43.5524 177.01 43.7868C177 44.0147 177.196 44.0928 177.596 44.0212C177.69 43.9951 177.791 43.9658 177.895 43.93C178.042 43.8779 178.211 43.8324 178.403 43.7868C178.592 43.7347 178.846 43.7217 179.158 43.7477C179.523 43.7673 179.764 43.9365 179.888 44.2555C180.008 44.5778 180.06 44.9815 180.044 45.4665C180.024 45.945 179.979 46.43 179.901 46.9248C179.813 47.5498 179.77 48.0837 179.77 48.5264C179.77 48.9691 179.901 49.2295 180.161 49.3076C180.5 49.3955 181.007 49.0863 181.685 48.3831C182.362 47.6735 183.084 46.4691 183.859 44.7764Z" fill="#315AFF"/>
<path d="M200.485 42.9535C200.615 42.9795 200.615 43.1553 200.485 43.4743C200.355 43.7966 200.088 44.21 199.691 44.7113C199.229 45.2321 198.47 45.8245 197.412 46.4821C196.351 47.1429 195.124 47.7516 193.727 48.305C192.337 48.8519 190.941 49.2393 189.535 49.4639C188.128 49.6917 186.843 49.6397 185.681 49.3076C184.447 48.9268 183.74 48.1227 183.558 46.8988C183.464 46.2054 183.506 45.5186 183.688 44.8415C183.913 44.1481 184.265 43.5361 184.743 43.0055C185.228 42.4684 185.83 42.0648 186.553 41.7946C187.22 41.5602 187.914 41.4691 188.636 41.5212C189.365 41.5732 189.958 41.7913 190.42 42.1722C190.488 42.2341 190.524 42.3219 190.524 42.4326C190.524 42.5368 190.505 42.641 190.472 42.7451C190.384 43.0674 190.231 43.2204 190.016 43.2009C189.808 43.1748 189.564 43.0934 189.287 42.9535C189.085 42.8428 188.871 42.7451 188.636 42.667C188.402 42.5824 188.155 42.5563 187.894 42.5889C187.181 42.693 186.585 43.0674 186.11 43.7087C185.726 44.2393 185.466 44.8252 185.329 45.4665C185.199 46.111 185.254 46.6872 185.498 47.1982C185.853 47.8591 186.468 48.2529 187.347 48.3831C188.223 48.5068 189.229 48.4417 190.368 48.1878C191.514 47.9274 192.673 47.5596 193.845 47.0811C195.016 46.596 196.087 46.085 197.061 45.5446C198.041 45.0075 198.796 44.5094 199.326 44.0472C199.873 43.5719 200.192 43.2594 200.29 43.1097C200.349 43.0511 200.388 43.012 200.407 42.9925C200.433 42.9665 200.459 42.9535 200.485 42.9535Z" fill="#315AFF"/>
<path d="M199.876 49.6462C199.71 49.6657 199.528 49.5485 199.329 49.2946C199.127 49.044 198.952 48.6143 198.795 48.0055C198.649 47.3903 198.597 46.544 198.639 45.4665C198.639 45.3623 198.639 45.2256 198.639 45.0498C198.639 44.6429 198.659 44.1579 198.691 43.5915C198.734 43.0283 198.815 42.5238 198.939 42.0811C199.059 41.6384 199.251 41.3714 199.512 41.2738C200.283 41.0654 200.703 41.3389 200.775 42.0941C200.775 42.3285 200.765 42.5693 200.748 42.8102C200.729 42.9242 200.722 43.0414 200.722 43.1618C200.703 43.5101 200.687 43.8486 200.67 44.1774C200.67 44.4736 200.657 44.7568 200.631 45.0238C200.631 45.2158 200.631 45.486 200.631 45.8311C200.657 46.3193 200.661 46.8532 200.644 47.4326C200.635 48.0055 200.569 48.5101 200.449 48.943C200.335 49.3695 200.143 49.6039 199.876 49.6462ZM200.605 38.6957C200.517 38.7933 200.39 38.8519 200.228 38.8779C200.062 38.8975 199.935 38.8845 199.85 38.8389C199.752 38.7445 199.694 38.6403 199.668 38.5264C199.642 38.4157 199.629 38.279 199.629 38.1227C199.645 38.0804 199.655 38.0414 199.655 38.0055C199.671 37.8591 199.707 37.7158 199.759 37.5759C199.922 37.1527 200.26 36.9704 200.775 37.029C200.957 37.0485 201.09 37.1201 201.178 37.2503C201.273 37.374 201.302 37.5173 201.269 37.68C201.146 38.0707 200.924 38.4092 200.605 38.6957Z" fill="#315AFF"/>
<path d="M220.48 43.5524C220.627 43.3538 220.783 43.2106 220.949 43.1227C221.122 43.0283 221.222 43.0283 221.248 43.1227C221.281 43.2106 221.196 43.4287 220.988 43.7738C220.493 44.5029 219.767 45.1995 218.814 45.8571C217.866 46.5081 216.815 47.068 215.663 47.5368C214.517 48.0055 213.39 48.3148 212.29 48.4613C211.196 48.611 210.265 48.5361 209.504 48.2399C208.748 47.9469 208.273 47.3675 208.084 46.5081C207.45 47.5498 206.694 48.3669 205.819 48.9561C204.94 49.5387 204.107 49.7861 203.319 49.6982C202.414 49.568 201.818 49.2295 201.522 48.6826C201.219 48.1357 201.118 47.5075 201.222 46.7946C201.32 46.0752 201.535 45.3949 201.873 44.7503C202.114 44.2653 202.466 43.8096 202.928 43.3831C203.387 42.96 203.866 42.6279 204.36 42.3936C204.985 42.0811 205.61 41.9443 206.235 41.9769C206.867 42.0029 207.541 42.208 208.254 42.5889C208.254 42.5889 208.26 42.5726 208.28 42.5368C208.28 42.4587 208.293 42.374 208.319 42.2764C208.351 42.1722 208.413 42.0876 208.501 42.0159C208.622 41.9215 208.778 41.8467 208.97 41.7946C209.168 41.7425 209.36 41.736 209.543 41.7686C209.836 41.8206 210.018 41.9704 210.09 42.2113C210.158 42.4456 210.171 42.7061 210.129 42.9925C210.083 43.2725 210.038 43.5101 209.985 43.7087C209.966 43.7542 209.959 43.7933 209.959 43.8258C209.663 45.0238 209.771 45.8669 210.285 46.3519C210.796 46.8402 211.538 47.0648 212.511 47.029C213.491 46.9964 214.53 46.7913 215.623 46.417C216.724 46.0459 217.723 45.5967 218.618 45.0758C219.52 44.555 220.142 44.0472 220.48 43.5524ZM203.67 48.0706C204.061 48.3311 204.471 48.305 204.907 47.9925C205.35 47.68 205.78 47.234 206.196 46.6514C206.62 46.0622 206.968 45.4762 207.238 44.8936C207.515 44.3141 207.671 43.8714 207.707 43.5654C206.828 43.0967 206.079 43.0153 205.454 43.318C204.836 43.624 204.351 44.109 203.996 44.7764C203.648 45.4372 203.449 46.0915 203.397 46.7425C203.345 47.3936 203.436 47.8363 203.67 48.0706Z" fill="#315AFF"/>
</g>
<defs>
<clipPath id="clip0_64019_722">
<rect width="250" height="75" fill="white"/>
</clipPath>
</defs>
</svg>
